<svg class="main-svg" xmlns="http://www.w3.org/2000/svg" xmlns:xlink="http://www.w3.org/1999/xlink" width="600" height="400" style=""><rect x="0" y="0" width="600" height="400" style="fill: rgb(255, 255, 255); fill-opacity: 1;"/><defs id="defs-5f2f50"><g class="clips"><clipPath id="clip5f2f50xyplot" class="plotclip"><rect width="550.181539807524" height="311.6633858267717"/></clipPath><clipPath class="axesclip" id="clip5f2f50x"><rect x="45.881452318460184" y="0" width="550.181539807524" height="400"/></clipPath><clipPath class="axesclip" id="clip5f2f50y"><rect x="0" y="41.04330708661415" width="600" height="311.6633858267717"/></clipPath><clipPath class="axesclip" id="clip5f2f50xy"><rect x="45.881452318460184" y="41.04330708661415" width="550.181539807524" height="311.6633858267717"/></clipPath></g><g class="gradients"/><g class="patterns"/></defs><g class="bglayer"/><g class="layer-below"><g class="imagelayer"/><g class="shapelayer"/></g><g class="cartesianlayer"><g class="subplot xy"><g class="layer-subplot"><g class="shapelayer"/><g class="imagelayer"/></g><g class="gridlayer"><g class="x"><path class="xgrid crisp" transform="translate(119.12145231846017,0)" d="M0,41.04330708661415v311.6633858267717" style="stroke: rgb(0, 0, 0); stroke-opacity: 0.5; stroke-width: 0.5px;"/><path class="xgrid crisp" transform="translate(234.4614523184602,0)" d="M0,41.04330708661415v311.6633858267717" style="stroke: rgb(0, 0, 0); stroke-opacity: 0.5; stroke-width: 0.5px;"/><path class="xgrid crisp" transform="translate(349.81145231846017,0)" d="M0,41.04330708661415v311.6633858267717" style="stroke: rgb(0, 0, 0); stroke-opacity: 0.5; stroke-width: 0.5px;"/><path class="xgrid crisp" transform="translate(465.15145231846014,0)" d="M0,41.04330708661415v311.6633858267717" style="stroke: rgb(0, 0, 0); stroke-opacity: 0.5; stroke-width: 0.5px;"/><path class="xgrid crisp" transform="translate(580.4914523184602,0)" d="M0,41.04330708661415v311.6633858267717" style="stroke: rgb(0, 0, 0); stroke-opacity: 0.5; stroke-width: 0.5px;"/></g><g class="y"><path class="ygrid crisp" transform="translate(0,350.86330708661416)" d="M45.881452318460184,0h550.181539807524" style="stroke: rgb(0, 0, 0); stroke-opacity: 0.5; stroke-width: 0.5px;"/><path class="ygrid crisp" transform="translate(0,287.95330708661413)" d="M45.881452318460184,0h550.181539807524" style="stroke: rgb(0, 0, 0); stroke-opacity: 0.5; stroke-width: 0.5px;"/><path class="ygrid crisp" transform="translate(0,225.04330708661416)" d="M45.881452318460184,0h550.181539807524" style="stroke: rgb(0, 0, 0); stroke-opacity: 0.5; stroke-width: 0.5px;"/><path class="ygrid crisp" transform="translate(0,162.14330708661413)" d="M45.881452318460184,0h550.181539807524" style="stroke: rgb(0, 0, 0); stroke-opacity: 0.5; stroke-width: 0.5px;"/><path class="ygrid crisp" transform="translate(0,99.23330708661415)" d="M45.881452318460184,0h550.181539807524" style="stroke: rgb(0, 0, 0); stroke-opacity: 0.5; stroke-width: 0.5px;"/></g></g><g class="zerolinelayer"/><path class="xlines-below"/><path class="ylines-below"/><g class="overlines-below"/><g class="xaxislayer-below"/><g class="yaxislayer-below"/><g class="overaxes-below"/><g class="plot" transform="translate(45.881452318460184,41.04330708661415)" clip-path="url(#clip5f2f50xyplot)"><g class="scatterlayer mlayer"><g class="trace scatter trace0e1ce9" style="stroke-miterlimit: 2; opacity: 1;"><g class="fills"/><g class="errorbars"/><g class="lines"><path class="js-line" d="M15.57,113.58L67.82,115.45L71.31,115.63L116.59,118.84L120.08,119.16L154.91,123.26L158.39,123.78L182.78,128.29L186.26,129.11L200.2,133.07L203.68,134.3L214.13,139.14L217.61,141.45L221.1,144.67L224.58,151.94L228.06,241.67L231.55,242.19L297.73,251.38L301.22,251.84L398.75,263.45L402.24,263.83L496.29,273.37L499.78,273.69L534.61,276.83" style="vector-effect: non-scaling-stroke; fill: none; stroke: rgb(0, 154, 250); stroke-opacity: 1; stroke-width: 2px; opacity: 1;"/></g><g class="points"/><g class="text"/></g><g class="trace scatter traceaa54be" style="stroke-miterlimit: 2; opacity: 1;"><g class="fills"/><g class="errorbars"/><g class="lines"><path class="js-line" d="M15.57,302.84L113.11,292.37L116.59,291.92L158.39,285.57L161.88,284.95L189.75,279.13L193.23,278.26L210.65,273.01L214.13,271.65L221.1,268.05L224.58,264.35L228.06,240.72L231.55,239.98L318.63,222.19L322.12,221.5L482.36,189.04L485.84,188.28L534.61,177.06" style="vector-effect: non-scaling-stroke; fill: none; stroke: rgb(227, 111, 71); stroke-opacity: 1; stroke-width: 2px; opacity: 1;"/></g><g class="points"/><g class="text"/></g><g class="trace scatter trace026520" style="stroke-miterlimit: 2; opacity: 1;"><g class="fills"/><g class="errorbars"/><g class="lines"><path class="js-line" d="M15.57,300.52L57.37,292.2L60.86,291.43L99.17,282.05L102.66,281.1L134.01,271.79L137.49,270.66L165.36,260.76L168.84,259.4L189.75,250.55L193.23,248.94L210.65,239.88L214.13,237.77L221.1,232.75L224.58,228.66L228.06,206.97L231.55,205.33L273.35,184.91L276.83,183.14L315.15,162.87L318.63,160.96L356.95,138.95L360.44,136.86L395.27,115.12L398.75,112.85L433.59,89.21L437.07,86.74L468.42,63.61L471.91,60.93L503.26,35.84L506.74,32.94L534.61,8.82" style="vector-effect: non-scaling-stroke; fill: none; stroke: rgb(62, 164, 78); stroke-opacity: 1; stroke-width: 2px; opacity: 1;"/></g><g class="points"/><g class="text"/></g></g></g><g class="overplot"/><path class="xlines-above crisp" d="M44.881452318460184,353.20669291338584H596.0629921259842" style="fill: none; stroke-width: 1px; stroke: rgb(0, 0, 0); stroke-opacity: 1;"/><path class="ylines-above crisp" d="M45.381452318460184,41.04330708661415V352.70669291338584" style="fill: none; stroke-width: 1px; stroke: rgb(0, 0, 0); stroke-opacity: 1;"/><g class="overlines-above"/><g class="xaxislayer-above"><path class="xtick ticks crisp" d="M0,352.70669291338584v-5" transform="translate(119.12145231846017,0)" style="stroke: rgb(0, 0, 0); stroke-opacity: 1; stroke-width: 1px;"/><path class="xtick ticks crisp" d="M0,352.70669291338584v-5" transform="translate(234.4614523184602,0)" style="stroke: rgb(0, 0, 0); stroke-opacity: 1; stroke-width: 1px;"/><path class="xtick ticks crisp" d="M0,352.70669291338584v-5" transform="translate(349.81145231846017,0)" style="stroke: rgb(0, 0, 0); stroke-opacity: 1; stroke-width: 1px;"/><path class="xtick ticks crisp" d="M0,352.70669291338584v-5" transform="translate(465.15145231846014,0)" style="stroke: rgb(0, 0, 0); stroke-opacity: 1; stroke-width: 1px;"/><path class="xtick ticks crisp" d="M0,352.70669291338584v-5" transform="translate(580.4914523184602,0)" style="stroke: rgb(0, 0, 0); stroke-opacity: 1; stroke-width: 1px;"/><g class="xtick"><text text-anchor="middle" x="0" y="366.9066929133858" transform="translate(119.12145231846017,0)" style="font-family: sans-serif; font-size: 11px; fill: rgb(0, 0, 0); fill-opacity: 1; white-space: pre; opacity: 1;">0.02</text></g><g class="xtick"><text text-anchor="middle" x="0" y="366.9066929133858" style="font-family: sans-serif; font-size: 11px; fill: rgb(0, 0, 0); fill-opacity: 1; white-space: pre; opacity: 1;" transform="translate(234.4614523184602,0)">0.04</text></g><g class="xtick"><text text-anchor="middle" x="0" y="366.9066929133858" style="font-family: sans-serif; font-size: 11px; fill: rgb(0, 0, 0); fill-opacity: 1; white-space: pre; opacity: 1;" transform="translate(349.81145231846017,0)">0.06</text></g><g class="xtick"><text text-anchor="middle" x="0" y="366.9066929133858" style="font-family: sans-serif; font-size: 11px; fill: rgb(0, 0, 0); fill-opacity: 1; white-space: pre; opacity: 1;" transform="translate(465.15145231846014,0)">0.08</text></g><g class="xtick"><text text-anchor="middle" x="0" y="366.9066929133858" style="font-family: sans-serif; font-size: 11px; fill: rgb(0, 0, 0); fill-opacity: 1; white-space: pre; opacity: 1;" transform="translate(580.4914523184602,0)">0.10</text></g></g><g class="yaxislayer-above"><path class="ytick ticks crisp" d="M45.881452318460184,0h5" transform="translate(0,350.86330708661416)" style="stroke: rgb(0, 0, 0); stroke-opacity: 1; stroke-width: 1px;"/><path class="ytick ticks crisp" d="M45.881452318460184,0h5" transform="translate(0,287.95330708661413)" style="stroke: rgb(0, 0, 0); stroke-opacity: 1; stroke-width: 1px;"/><path class="ytick ticks crisp" d="M45.881452318460184,0h5" transform="translate(0,225.04330708661416)" style="stroke: rgb(0, 0, 0); stroke-opacity: 1; stroke-width: 1px;"/><path class="ytick ticks crisp" d="M45.881452318460184,0h5" transform="translate(0,162.14330708661413)" style="stroke: rgb(0, 0, 0); stroke-opacity: 1; stroke-width: 1px;"/><path class="ytick ticks crisp" d="M45.881452318460184,0h5" transform="translate(0,99.23330708661415)" style="stroke: rgb(0, 0, 0); stroke-opacity: 1; stroke-width: 1px;"/><g class="ytick"><text text-anchor="end" x="42.68145231846018" y="3.8499999999999996" transform="translate(0,350.86330708661416)" style="font-family: sans-serif; font-size: 11px; fill: rgb(0, 0, 0); fill-opacity: 1; white-space: pre; opacity: 1;">0.0</text></g><g class="ytick"><text text-anchor="end" x="42.68145231846018" y="3.8499999999999996" style="font-family: sans-serif; font-size: 11px; fill: rgb(0, 0, 0); fill-opacity: 1; white-space: pre; opacity: 1;" transform="translate(0,287.95330708661413)">0.1</text></g><g class="ytick"><text text-anchor="end" x="42.68145231846018" y="3.8499999999999996" style="font-family: sans-serif; font-size: 11px; fill: rgb(0, 0, 0); fill-opacity: 1; white-space: pre; opacity: 1;" transform="translate(0,225.04330708661416)">0.2</text></g><g class="ytick"><text text-anchor="end" x="42.68145231846018" y="3.8499999999999996" style="font-family: sans-serif; font-size: 11px; fill: rgb(0, 0, 0); fill-opacity: 1; white-space: pre; opacity: 1;" transform="translate(0,162.14330708661413)">0.3</text></g><g class="ytick"><text text-anchor="end" x="42.68145231846018" y="3.8499999999999996" style="font-family: sans-serif; font-size: 11px; fill: rgb(0, 0, 0); fill-opacity: 1; white-space: pre; opacity: 1;" transform="translate(0,99.23330708661415)">0.4</text></g></g><g class="overaxes-above"/></g></g><g class="polarlayer"/><g class="ternarylayer"/><g class="geolayer"/><g class="funnelarealayer"/><g class="pielayer"/><g class="iciclelayer"/><g class="treemaplayer"/><g class="sunburstlayer"/><g class="glimages"/><defs id="topdefs-5f2f50"><g class="clips"/><clipPath id="legend5f2f50"><rect width="57" height="67" x="1" y="1"/></clipPath></defs><g class="layer-above"><g class="imagelayer"/><g class="shapelayer"/></g><g class="infolayer"><g class="legend" pointer-events="all" transform="translate(541,20)"><rect class="bg" shape-rendering="crispEdges" width="58" height="68" x="0.5" y="0.5" style="stroke: rgb(0, 0, 0); stroke-opacity: 1; fill: rgb(255, 255, 255); fill-opacity: 1; stroke-width: 1px;"/><g class="scrollbox" transform="" clip-path="url(#legend5f2f50)"><g class="groups"><g class="traces" transform="translate(1,15.5)" style="opacity: 1;"><text class="legendtext" text-anchor="start" x="40" y="4.29" style="font-family: sans-serif; font-size: 11px; fill: rgb(0, 0, 0); fill-opacity: 1; white-space: pre;">M</text><g class="layers" style="opacity: 1;"><g class="legendfill"/><g class="legendlines"><path class="js-line" d="M5,0h30" style="fill: none; stroke: rgb(0, 154, 250); stroke-opacity: 1; stroke-width: 2px;"/></g><g class="legendsymbols"><g class="legendpoints"/></g></g><rect class="legendtoggle" x="0" y="-9.5" width="51.16015625" height="19" style="fill: rgb(0, 0, 0); fill-opacity: 0;"/></g><g class="traces" transform="translate(1,34.5)" style="opacity: 1;"><text class="legendtext" text-anchor="start" x="40" y="4.29" style="font-family: sans-serif; font-size: 11px; fill: rgb(0, 0, 0); fill-opacity: 1; white-space: pre;">ϕ</text><g class="layers" style="opacity: 1;"><g class="legendfill"/><g class="legendlines"><path class="js-line" d="M5,0h30" style="fill: none; stroke: rgb(227, 111, 71); stroke-opacity: 1; stroke-width: 2px;"/></g><g class="legendsymbols"><g class="legendpoints"/></g></g><rect class="legendtoggle" x="0" y="-9.5" width="51.16015625" height="19" style="fill: rgb(0, 0, 0); fill-opacity: 0;"/></g><g class="traces" transform="translate(1,53.5)" style="opacity: 1;"><text class="legendtext" text-anchor="start" x="40" y="4.29" style="font-family: sans-serif; font-size: 11px; fill: rgb(0, 0, 0); fill-opacity: 1; white-space: pre;">ϕ*</text><g class="layers" style="opacity: 1;"><g class="legendfill"/><g class="legendlines"><path class="js-line" d="M5,0h30" style="fill: none; stroke: rgb(62, 164, 78); stroke-opacity: 1; stroke-width: 2px;"/></g><g class="legendsymbols"><g class="legendpoints"/></g></g><rect class="legendtoggle" x="0" y="-9.5" width="51.16015625" height="19" style="fill: rgb(0, 0, 0); fill-opacity: 0;"/></g></g></g><rect class="scrollbar" rx="20" ry="3" width="0" height="0" x="0" y="0" style="fill: rgb(128, 139, 164); fill-opacity: 1;"/></g><g class="g-gtitle"/><g class="g-xtitle" transform="translate(0,-10.706692913385837)"><text class="xtitle" x="320.9722222222222" y="407.70669291338584" text-anchor="middle" style="font-family: sans-serif; font-size: 15px; fill: rgb(0, 0, 0); opacity: 1; font-weight: normal; white-space: pre;">T</text></g><g class="g-ytitle" transform="translate(8.1181640625,0)"><text class="ytitle" transform="rotate(-90,5.881452318460184,196.875)" x="5.881452318460184" y="196.875" text-anchor="middle" style="font-family: sans-serif; font-size: 15px; fill: rgb(0, 0, 0); opacity: 1; font-weight: normal; white-space: pre;">phi, phib</text></g><g class="annotation" data-index="0" style="opacity: 1;"><g class="annotation-text-g" transform="rotate(0,320.9722222222223,33.00000000000001)"><g class="cursor-pointer" transform="translate(222,20)"><rect class="bg" x="0.5" y="0.5" width="196" height="25" style="stroke-width: 1px; stroke: rgb(0, 0, 0); stroke-opacity: 0; fill: rgb(0, 0, 0); fill-opacity: 0;"/><text class="annotation-text" text-anchor="middle" x="98.7421875" y="20" style="font-family: sans-serif; font-size: 20px; fill: rgb(0, 0, 0); fill-opacity: 1; white-space: pre;">phi and phib solutions</text></g></g></g></g></svg>